Naked Weapon 	
 
http://www.imdb.com/title/tt0341495/



Source  :


Naked.Weapon.2002.720p.BluRay.x264-MELiTE (English)


Info : 


ID                               : 1
Format                           : AVC
Format/Info                      : Advanced Video Codec
Format profile                   : Baseline@L2.0
Format settings, CABAC           : No
Format settings, ReFrames        : 3 frames
Codec ID                         : avc1
Codec ID/Info                    : Advanced Video Coding
Duration                         : 1h 31mn
Bit rate mode                    : Variable
Bit rate                         : 395 Kbps
Width                            : 384 pixels
Height                           : 208 pixels
Display aspect ratio             : 16:9
Frame rate mode                  : Variable
Frame rate                       : 24.000 fps
Minimum frame rate               : 23.810 fps
Maximum frame rate               : 24.390 fps
Color space                      : YUV
Chroma subsampling               : 4:2:0
Bit depth                        : 8 bits
Scan type                        : Progressive
Bits/(Pixel*Frame)               : 0.206
Stream size                      : 259 MiB (75%)
Writing library                  : x264 core 79


ID                               : 2
Format                           : AAC
Format/Info                      : Advanced Audio Codec
Format version                   : Version 4
Format profile                   : LC
Format settings, SBR             : No
Codec ID                         : 40
Duration                         : 1h 31mn
Bit rate mode                    : Variable
Bit rate                         : 128 Kbps
Maximum bit rate                 : 163 Kbps
Channel(s)                       : 2 channels
Channel positions                : Front: L R
Sampling rate                    : 48.0 KHz
Stream size                      : 83.9 MiB (24%)


Screens:

 
http://img268.imageshack.us/img268/4000/nakedweaponooom4vthumbs.jpg




PLEASE DONT COMPLAIN ABOUT MISSING SUBTITLES.. I DONT DO SUBS.. =)

PLEASE LET THE TORRENT SEED AND SPREAD THE WORD ABOUT 

Let me know what I can do to be your trusted source of Handheld videos.
 
http://thepiratebay.org/user/on.off.on/ -OOO